<svg width="24" height="24" viewBox="0 0 24 24" fill="none" xmlns="http://www.w3.org/2000/svg">
<g clip-path="url(#clip0_85_625)">
<path d="M4 9.99997C4 8.9391 4.42143 7.92169 5.17157 7.17154C5.92172 6.4214 6.93913 5.99997 8 5.99997H16C17.0609 5.99997 18.0783 6.4214 18.8284 7.17154C19.5786 7.92169 20 8.9391 20 9.99997V20C20 20.5304 19.7893 21.0391 19.4142 21.4142C19.0391 21.7893 18.5304 22 18 22H6C5.46957 22 4.96086 21.7893 4.58579 21.4142C4.21071 21.0391 4 20.5304 4 20V9.99997Z" stroke="white" stroke-width="3" stroke-linecap="round" stroke-linejoin="round"/>
<path d="M8 9.99997H16" stroke="white" stroke-width="3" stroke-linecap="round" stroke-linejoin="round"/>
<path d="M8 18H16" stroke="white" stroke-width="3" stroke-linecap="round" stroke-linejoin="round"/>
<path d="M8 22V16C8 15.4696 8.21071 14.9609 8.58579 14.5858C8.96086 14.2107 9.46957 14 10 14H14C14.5304 14 15.0391 14.2107 15.4142 14.5858C15.7893 14.9609 16 15.4696 16 16V22" stroke="white" stroke-width="3" stroke-linecap="round" stroke-linejoin="round"/>
<path d="M9 5.99997V3.99997C9 3.46954 9.21071 2.96083 9.58579 2.58576C9.96086 2.21068 10.4696 1.99997 11 1.99997H13C13.5304 1.99997 14.0391 2.21068 14.4142 2.58576C14.7893 2.96083 15 3.46954 15 3.99997V5.99997" stroke="white" stroke-width="3" stroke-linecap="round" stroke-linejoin="round"/>
</g>
<defs>
<clipPath id="clip0_85_625">
<rect width="24" height="24" fill="white"/>
</clipPath>
</defs>
</svg>
